<svg width="109" height="28" viewBox="0 0 109 28" fill="none" xmlns="http://www.w3.org/2000/svg">
<g id="App store" clip-path="url(#clip0_909_379)">
<path id="Vector" d="M16.1279 13.2501C16.1279 12.3501 16.4279 11.4501 16.8279 10.6501C17.2279 9.8501 17.9279 9.15009 18.7279 8.7501C18.2279 8.0501 17.6279 7.4501 16.8279 7.0501C16.0279 6.6501 15.2279 6.4501 14.3279 6.3501C12.5279 6.1501 10.7279 7.4501 9.82795 7.4501C8.82795 7.4501 7.42795 6.3501 5.92795 6.4501C4.92795 6.4501 3.92795 6.7501 3.12795 7.2501C2.22795 7.8501 1.52795 8.5501 1.02795 9.4501C-1.07205 13.1501 0.527951 18.4501 2.52795 21.4501C3.52795 22.8501 4.72795 24.5501 6.22795 24.4501C7.72795 24.3501 8.32795 23.4501 10.1279 23.4501C11.9279 23.4501 12.4279 24.4501 14.0279 24.3501C15.6279 24.3501 16.6279 22.8501 17.6279 21.4501C18.3279 20.4501 18.9279 19.2501 19.3279 18.0501C18.4279 17.6501 17.6279 16.9501 17.0279 16.1501C16.4279 15.3501 16.1279 14.3501 16.1279 13.2501ZM13.2279 4.4501C14.1279 3.3501 14.5279 2.0501 14.4279 0.650098C13.0279 0.750098 11.8279 1.4501 10.9279 2.4501C10.5279 2.9501 10.1279 3.5501 9.92795 4.1501C9.72795 4.7501 9.62795 5.4501 9.62795 6.1501C10.3279 6.1501 10.9279 6.0501 11.6279 5.7501C12.2279 5.4501 12.7279 4.9501 13.2279 4.4501ZM35.2279 20.7501H30.0279L28.8279 24.4501H26.6279L31.5279 10.9501H33.8279L38.7279 24.4501H36.5279L35.2279 20.7501ZM30.6279 19.0501H34.7279L32.7279 13.1501H32.6279L30.6279 19.0501ZM49.3279 19.4501C49.3279 22.5501 47.7279 24.4501 45.2279 24.4501C44.6279 24.4501 43.9279 24.3501 43.4279 24.0501C42.9279 23.7501 42.4279 23.2501 42.1279 22.7501V27.6501H40.1279V14.5501H42.1279V16.1501C42.4279 15.6501 42.9279 15.1501 43.4279 14.8501C44.0279 14.5501 44.6279 14.3501 45.2279 14.4501C47.6279 14.4501 49.3279 16.4501 49.3279 19.4501ZM47.2279 19.4501C47.2279 17.4501 46.2279 16.1501 44.6279 16.1501C43.1279 16.1501 42.0279 17.4501 42.0279 19.4501C42.0279 21.4501 43.0279 22.7501 44.6279 22.7501C46.1279 22.7501 47.2279 21.4501 47.2279 19.4501ZM60.1279 19.4501C60.1279 22.5501 58.5279 24.4501 56.0279 24.4501C55.4279 24.4501 54.7279 24.3501 54.2279 24.0501C53.7279 23.7501 53.2279 23.2501 52.9279 22.7501V27.6501H50.9279V14.5501H52.9279V16.1501C53.2279 15.6501 53.7279 15.1501 54.2279 14.8501C54.8279 14.5501 55.4279 14.3501 56.0279 14.4501C58.5279 14.4501 60.1279 16.4501 60.1279 19.4501ZM58.0279 19.4501C58.0279 17.4501 57.0279 16.1501 55.4279 16.1501C53.9279 16.1501 52.8279 17.4501 52.8279 19.4501C52.8279 21.4501 53.8279 22.7501 55.4279 22.7501C57.0279 22.7501 58.0279 21.4501 58.0279 19.4501ZM67.3279 20.6501C67.5279 21.9501 68.8279 22.8501 70.5279 22.8501C72.2279 22.8501 73.4279 21.9501 73.4279 20.7501C73.4279 19.6501 72.7279 19.0501 70.9279 18.6501L69.1279 18.2501C66.6279 17.6501 65.5279 16.4501 65.5279 14.6501C65.5279 12.3501 67.5279 10.7501 70.4279 10.7501C73.3279 10.7501 75.2279 12.3501 75.3279 14.6501H73.3279C73.2279 13.2501 72.1279 12.4501 70.4279 12.4501C68.8279 12.4501 67.7279 13.2501 67.7279 14.4501C67.7279 15.4501 68.4279 15.9501 70.2279 16.4501L71.7279 16.8501C74.5279 17.5501 75.6279 18.6501 75.6279 20.6501C75.6279 23.1501 73.6279 24.7501 70.4279 24.7501C67.4279 24.7501 65.4279 23.2501 65.2279 20.7501L67.3279 20.6501ZM80.0279 12.1501V14.4501H81.9279V16.0501H80.0279V21.4501C80.0279 22.2501 80.4279 22.6501 81.2279 22.6501H81.9279V24.3501C81.5279 24.4501 81.2279 24.4501 80.8279 24.4501C78.8279 24.4501 78.0279 23.6501 78.0279 21.7501V16.0501H76.6279V14.4501H78.0279V12.1501H80.0279ZM83.0279 19.4501C83.0279 16.3501 84.8279 14.3501 87.7279 14.3501C90.6279 14.3501 92.4279 16.3501 92.4279 19.4501C92.4279 22.5501 90.6279 24.5501 87.7279 24.5501C84.8279 24.5501 83.0279 22.5501 83.0279 19.4501ZM90.2279 19.4501C90.2279 17.3501 89.2279 16.0501 87.6279 16.0501C86.0279 16.0501 85.0279 17.3501 85.0279 19.4501C85.0279 21.5501 86.0279 22.8501 87.6279 22.8501C89.3279 22.8501 90.2279 21.6501 90.2279 19.4501ZM94.0279 14.5501H95.9279V16.2501C96.0279 15.7501 96.3279 15.2501 96.8279 14.9501C97.2279 14.6501 97.8279 14.4501 98.3279 14.4501C98.5279 14.4501 98.8279 14.4501 99.0279 14.5501V16.3501C98.7279 16.2501 98.4279 16.2501 98.1279 16.2501C97.8279 16.2501 97.5279 16.2501 97.2279 16.4501C96.9279 16.5501 96.7279 16.7501 96.5279 16.9501C96.3279 17.1501 96.1279 17.4501 96.1279 17.7501C96.0279 17.9501 96.0279 18.2501 96.0279 18.5501V24.4501H94.0279V14.5501ZM108.428 21.5501C108.128 23.3501 106.428 24.5501 104.228 24.5501C101.328 24.5501 99.5279 22.6501 99.5279 19.5501C99.5279 16.4501 101.328 14.4501 104.128 14.4501C106.828 14.4501 108.528 16.3501 108.528 19.3501V20.0501H101.528V20.1501C101.528 20.5501 101.528 20.8501 101.628 21.2501C101.728 21.5501 101.928 21.9501 102.228 22.1501C102.528 22.4501 102.828 22.6501 103.128 22.7501C103.428 22.8501 103.828 22.9501 104.228 22.9501C104.728 22.9501 105.228 22.8501 105.628 22.6501C106.028 22.3501 106.328 22.0501 106.528 21.5501H108.428ZM101.528 18.5501H106.428C106.428 18.2501 106.428 17.8501 106.328 17.5501C106.228 17.2501 106.028 16.9501 105.828 16.7501C105.628 16.5501 105.328 16.3501 105.028 16.2501C104.728 16.1501 104.428 16.0501 104.028 16.0501C103.728 16.0501 103.328 16.1501 103.028 16.2501C102.728 16.3501 102.428 16.5501 102.228 16.7501C102.028 16.9501 101.828 17.2501 101.728 17.5501C101.628 17.9501 101.528 18.2501 101.528 18.5501ZM30.4279 0.650098C30.8279 0.650098 31.3279 0.650098 31.6279 0.850098C32.0279 1.0501 32.4279 1.2501 32.6279 1.5501C32.9279 1.8501 33.1279 2.2501 33.2279 2.6501C33.3279 3.0501 33.4279 3.4501 33.3279 3.9501C33.3279 6.0501 32.2279 7.2501 30.2279 7.2501H28.0279V0.650098H30.4279ZM29.0279 6.2501H30.2279C30.5279 6.2501 30.8279 6.2501 31.1279 6.1501C31.4279 6.0501 31.6279 5.8501 31.8279 5.6501C32.0279 5.4501 32.2279 5.1501 32.2279 4.8501C32.3279 4.5501 32.3279 4.2501 32.3279 3.9501C32.3279 3.6501 32.3279 3.3501 32.2279 3.0501C32.1279 2.7501 32.0279 2.4501 31.8279 2.2501C31.6279 2.0501 31.3279 1.8501 31.1279 1.7501C30.8279 1.6501 30.5279 1.5501 30.2279 1.6501H29.0279V6.2501ZM34.6279 4.7501C34.6279 4.4501 34.6279 4.1501 34.7279 3.7501C34.8279 3.4501 35.0279 3.1501 35.2279 2.9501C35.4279 2.7501 35.7279 2.5501 36.0279 2.3501C36.3279 2.2501 36.6279 2.1501 36.9279 2.1501C37.2279 2.1501 37.5279 2.2501 37.8279 2.3501C38.1279 2.4501 38.4279 2.6501 38.6279 2.9501C38.8279 3.1501 39.0279 3.4501 39.1279 3.7501C39.2279 4.0501 39.2279 4.3501 39.2279 4.7501C39.2279 5.0501 39.2279 5.3501 39.1279 5.7501C39.0279 6.0501 38.8279 6.3501 38.6279 6.5501C38.4279 6.7501 38.1279 6.9501 37.8279 7.1501C37.5279 7.2501 37.2279 7.3501 36.9279 7.3501C36.6279 7.3501 36.3279 7.2501 36.0279 7.1501C35.7279 7.0501 35.4279 6.8501 35.2279 6.5501C35.0279 6.3501 34.8279 6.0501 34.7279 5.7501C34.6279 5.3501 34.5279 5.0501 34.6279 4.7501ZM38.2279 4.7501C38.2279 3.6501 37.7279 3.0501 36.9279 3.0501C36.1279 3.0501 35.6279 3.6501 35.6279 4.7501C35.6279 5.8501 36.1279 6.4501 36.9279 6.4501C37.7279 6.4501 38.2279 5.7501 38.2279 4.7501ZM45.4279 7.1501H44.4279L43.4279 3.5501H43.3279L42.3279 7.1501H41.3279L39.9279 2.2501H40.9279L41.8279 5.9501H41.9279L42.9279 2.2501H43.8279L44.8279 5.9501H44.9279L45.8279 2.2501H46.8279L45.4279 7.1501ZM47.8279 2.2501H48.7279V3.0501H48.8279C49.0279 2.7501 49.2279 2.5501 49.4279 2.3501C49.7279 2.1501 50.0279 2.1501 50.3279 2.1501C50.5279 2.1501 50.8279 2.1501 51.0279 2.2501C51.2279 2.3501 51.4279 2.4501 51.6279 2.6501C51.8279 2.8501 51.9279 3.0501 52.0279 3.2501V7.1501H51.0279V4.2501C51.0279 3.4501 50.7279 3.0501 49.9279 3.0501C49.7279 3.0501 49.6279 3.0501 49.4279 3.1501C49.2279 3.2501 49.1279 3.3501 49.0279 3.4501C48.9279 3.5501 48.8279 3.7501 48.8279 3.8501C48.7279 4.0501 48.7279 4.1501 48.7279 4.3501V7.2501H47.7279L47.8279 2.2501ZM53.6279 0.350098H54.6279V7.1501H53.6279V0.350098ZM55.9279 4.7501C55.9279 4.4501 55.9279 4.1501 56.0279 3.7501C56.1279 3.4501 56.3279 3.1501 56.5279 2.9501C56.7279 2.7501 57.0279 2.5501 57.3279 2.3501C57.6279 2.2501 57.9279 2.1501 58.2279 2.1501C58.5279 2.1501 58.8279 2.2501 59.1279 2.3501C59.4279 2.4501 59.7279 2.6501 59.9279 2.9501C60.1279 3.1501 60.3279 3.4501 60.4279 3.7501C60.5279 4.0501 60.5279 4.3501 60.5279 4.7501C60.5279 5.0501 60.5279 5.3501 60.4279 5.7501C60.3279 6.0501 60.1279 6.3501 59.9279 6.5501C59.7279 6.7501 59.4279 6.9501 59.1279 7.1501C58.8279 7.2501 58.5279 7.3501 58.2279 7.3501C57.9279 7.3501 57.6279 7.2501 57.3279 7.1501C57.0279 7.0501 56.7279 6.8501 56.5279 6.5501C56.3279 6.3501 56.1279 6.0501 56.0279 5.7501C55.9279 5.3501 55.8279 5.0501 55.9279 4.7501ZM59.5279 4.7501C59.5279 3.6501 59.0279 3.0501 58.2279 3.0501C57.4279 3.0501 56.9279 3.6501 56.9279 4.7501C56.9279 5.8501 57.4279 6.4501 58.2279 6.4501C59.0279 6.4501 59.5279 5.7501 59.5279 4.7501ZM61.5279 5.7501C61.5279 4.8501 62.2279 4.3501 63.3279 4.2501L64.6279 4.1501V3.8501C64.6279 3.3501 64.3279 3.0501 63.6279 3.0501C63.1279 3.0501 62.7279 3.2501 62.6279 3.5501H61.7279C61.8279 2.7501 62.6279 2.1501 63.7279 2.1501C64.9279 2.1501 65.6279 2.7501 65.6279 3.7501V7.1501H64.7279V6.4501H64.6279L64.0279 7.0501C63.7279 7.1501 63.5279 7.2501 63.2279 7.2501C63.0279 7.2501 62.8279 7.2501 62.6279 7.1501C62.4279 7.0501 62.2279 6.9501 62.1279 6.8501C61.9279 6.7501 61.8279 6.5501 61.7279 6.3501C61.6279 6.1501 61.5279 5.9501 61.5279 5.7501ZM64.7279 5.3501V4.9501L63.5279 5.0501C62.8279 5.0501 62.5279 5.3501 62.5279 5.7501C62.5279 6.1501 62.9279 6.4501 63.4279 6.4501H63.9279C64.0279 6.4501 64.2279 6.3501 64.3279 6.2501C64.4279 6.1501 64.5279 6.0501 64.6279 5.8501C64.6279 5.6501 64.7279 5.5501 64.7279 5.3501ZM66.9279 4.7501C66.9279 3.1501 67.7279 2.2501 68.9279 2.2501C69.2279 2.2501 69.5279 2.3501 69.8279 2.4501C70.1279 2.6501 70.3279 2.8501 70.4279 3.0501H70.5279V0.350098H71.5279V7.1501H70.6279V6.3501H70.5279C70.3279 6.6501 70.1279 6.8501 69.8279 6.9501C69.5279 7.1501 69.2279 7.1501 68.9279 7.1501C67.7279 7.2501 66.9279 6.2501 66.9279 4.7501ZM67.9279 4.7501C67.9279 5.7501 68.4279 6.4501 69.2279 6.4501C70.0279 6.4501 70.5279 5.8501 70.5279 4.7501C70.5279 3.7501 70.0279 3.0501 69.2279 3.0501C68.4279 3.0501 67.9279 3.6501 67.9279 4.7501ZM75.5279 4.7501C75.5279 4.4501 75.5279 4.1501 75.6279 3.7501C75.7279 3.3501 75.9279 3.1501 76.1279 2.9501C76.3279 2.7501 76.6279 2.5501 76.9279 2.3501C77.2279 2.2501 77.5279 2.1501 77.8279 2.1501C78.1279 2.1501 78.4279 2.2501 78.7279 2.3501C79.0279 2.4501 79.3279 2.6501 79.5279 2.9501C79.7279 3.1501 79.9279 3.4501 80.0279 3.7501C80.1279 4.0501 80.1279 4.3501 80.1279 4.7501C80.1279 5.0501 80.1279 5.3501 80.0279 5.7501C79.9279 6.0501 79.7279 6.3501 79.5279 6.5501C79.3279 6.7501 79.0279 6.9501 78.7279 7.1501C78.4279 7.2501 78.1279 7.3501 77.8279 7.3501C77.5279 7.3501 77.2279 7.2501 76.9279 7.1501C76.6279 7.0501 76.3279 6.8501 76.1279 6.5501C75.9279 6.2501 75.7279 6.0501 75.6279 5.7501C75.5279 5.3501 75.5279 5.0501 75.5279 4.7501ZM79.1279 4.7501C79.1279 3.6501 78.6279 3.0501 77.8279 3.0501C77.0279 3.0501 76.5279 3.6501 76.5279 4.7501C76.5279 5.8501 77.0279 6.4501 77.8279 6.4501C78.7279 6.4501 79.1279 5.7501 79.1279 4.7501ZM81.4279 2.2501H82.3279V3.0501H82.4279C82.6279 2.7501 82.8279 2.5501 83.0279 2.3501C83.3279 2.1501 83.6279 2.1501 83.9279 2.1501C84.1279 2.1501 84.4279 2.1501 84.6279 2.2501C84.8279 2.3501 85.0279 2.5501 85.2279 2.6501C85.4279 2.8501 85.5279 3.0501 85.6279 3.2501C85.7279 3.4501 85.7279 3.7501 85.7279 3.9501V7.1501H84.7279V4.2501C84.7279 3.4501 84.4279 3.0501 83.6279 3.0501C83.4279 3.0501 83.3279 3.0501 83.1279 3.1501C82.9279 3.2501 82.8279 3.3501 82.7279 3.4501C82.6279 3.5501 82.5279 3.7501 82.5279 3.8501C82.4279 4.0501 82.4279 4.1501 82.4279 4.3501V7.2501H81.4279V2.2501ZM91.1279 1.0501V2.2501H92.2279V3.0501H91.1279V5.5501C91.1279 6.0501 91.3279 6.2501 91.8279 6.2501H92.2279V7.0501H91.7279C90.6279 7.0501 90.2279 6.6501 90.2279 5.7501V3.1501H89.4279V2.2501H90.2279V1.0501H91.1279ZM93.5279 0.350098H94.5279V3.0501H94.6279C94.7279 2.7501 94.9279 2.5501 95.2279 2.3501C95.5279 2.1501 95.8279 2.1501 96.1279 2.1501C96.3279 2.1501 96.6279 2.1501 96.8279 2.2501C97.0279 2.3501 97.2279 2.4501 97.4279 2.6501C97.6279 2.8501 97.7279 3.0501 97.8279 3.2501C97.9279 3.4501 97.9279 3.7501 97.9279 3.9501V7.1501H96.9279V4.2501C96.9279 3.4501 96.5279 3.0501 95.8279 3.0501C95.6279 3.0501 95.5279 3.0501 95.3279 3.1501C95.0279 3.1501 94.9279 3.2501 94.8279 3.3501C94.7279 3.4501 94.6279 3.6501 94.5279 3.7501C94.4279 3.8501 94.4279 4.1501 94.4279 4.3501V7.2501H93.4279L93.5279 0.350098ZM103.328 5.8501C103.228 6.2501 102.928 6.6501 102.528 6.9501C102.128 7.2501 101.628 7.3501 101.228 7.2501C100.928 7.2501 100.628 7.1501 100.328 7.0501C100.028 6.9501 99.7279 6.7501 99.5279 6.4501C99.3279 6.2501 99.1279 5.9501 99.0279 5.6501C98.9279 5.3501 98.9279 5.0501 98.9279 4.6501C98.9279 4.3501 98.9279 4.0501 99.0279 3.6501C99.1279 3.3501 99.3279 3.0501 99.5279 2.8501C99.7279 2.6501 100.028 2.4501 100.328 2.2501C100.628 2.1501 100.928 2.0501 101.228 2.0501C102.628 2.0501 103.428 2.9501 103.428 4.5501V4.8501H99.9279V4.9501C99.9279 5.1501 99.9279 5.3501 100.028 5.4501C100.128 5.6501 100.228 5.7501 100.328 5.9501C100.428 6.0501 100.628 6.1501 100.728 6.2501C100.928 6.3501 101.028 6.3501 101.228 6.3501C101.428 6.3501 101.728 6.3501 101.928 6.2501C102.128 6.1501 102.328 5.9501 102.428 5.7501L103.328 5.8501ZM99.9279 4.2501H102.428C102.428 4.0501 102.428 3.9501 102.328 3.7501C102.228 3.5501 102.228 3.4501 102.028 3.3501C101.928 3.2501 101.728 3.1501 101.628 3.0501C101.428 2.9501 101.328 2.9501 101.128 2.9501C100.928 2.9501 100.828 2.9501 100.628 3.0501C100.428 3.1501 100.328 3.2501 100.228 3.3501C100.128 3.4501 100.028 3.6501 99.9279 3.7501C100.028 3.9501 99.9279 4.1501 99.9279 4.2501Z" fill="white"/>
</g>
<defs>
<clipPath id="clip0_909_379">
<rect width="109" height="28" fill="white"/>
</clipPath>
</defs>
</svg>
