<svg width="163" height="40" viewBox="0 0 163 40" fill="none" xmlns="http://www.w3.org/2000/svg">
<g id="Calque_1" clip-path="url(#clip0_906_382)">
<path id="Vector" d="M89.7643 25.5618C88.512 26.5948 87.3247 27.6162 86.0953 28.58C82.2041 31.6365 78.0717 34.3283 73.6252 36.494C71.7371 37.4155 69.8106 38.3102 67.8152 38.9438C60.3623 41.3053 53.5489 38.5905 50.0254 32.3584C45.7819 24.8476 49.4318 15.1404 57.5052 12.1453C61.4002 10.6977 65.2377 11.0356 68.9795 12.4832C76.6087 15.4322 83.3339 19.8942 89.4847 25.2585C89.5499 25.3161 89.6035 25.389 89.7643 25.5657V25.5618ZM63.3113 32.1971C67.0148 32.1587 69.9983 29.1675 69.9753 25.5081C69.9523 21.6836 66.9459 18.8152 63.0355 18.8382C59.8606 18.8574 56.4673 21.6759 56.6167 25.8844C56.7392 29.3019 59.7686 32.2317 63.3113 32.1971Z" fill="#FDB031"/>
<path id="Vector_2" d="M162.999 39.9155H154.872V39.1015C154.872 34.3976 154.88 29.6938 154.865 24.9899C154.865 24.2757 154.799 23.55 154.685 22.8434C154.236 20.0326 152.651 19.0304 149.847 19.3607C147.009 19.6947 145.332 21.5955 145.282 24.5445C145.209 28.9757 145.255 33.4108 145.248 37.8458C145.248 38.5178 145.248 39.1898 145.248 39.9078H137.197V0H145.225V13.8005C145.753 13.524 146.182 13.3052 146.603 13.0748C150.897 10.7017 156.262 11.2201 159.709 14.388C161.716 16.2312 162.601 18.6196 162.873 21.2729C162.961 22.1215 162.988 22.9778 162.988 23.8341C162.999 28.922 162.992 34.006 162.992 39.0938V39.9232L162.999 39.9155Z" fill="white"/>
<path id="Vector_3" d="M23.1935 18.3354C20.9224 19.1187 18.7279 19.8867 16.5142 20.6125C16.3648 20.6624 16.047 20.4281 15.9091 20.2477C14.9669 19.0227 13.8639 18.0474 12.2937 17.7402C12.0983 17.7018 11.8915 17.6826 11.6924 17.6903C10.8383 17.7249 10.1796 18.1626 10.0072 18.7924C9.83487 19.4259 10.0762 20.1402 10.8268 20.5549C11.8188 21.104 12.8873 21.5302 13.9329 21.9833C15.7176 22.7551 17.5866 23.3695 19.2909 24.2949C24.894 27.3438 24.1357 33.8639 20.3288 37.0433C15.6295 40.9676 7.81269 40.9216 3.27045 36.8244C1.63891 35.3537 0.646974 33.4876 0.038022 31.3948C-0.061555 31.0492 0.00355307 30.8764 0.371222 30.7497C2.34361 30.0739 4.30835 29.3827 6.26159 28.6608C6.70586 28.4957 6.84373 28.6877 7.02757 29.0179C8.07695 30.911 9.55912 32.2857 11.746 32.6966C12.2592 32.7925 12.8298 32.7772 13.3392 32.6582C14.6797 32.3471 15.078 31.0377 14.1243 30.0317C13.7184 29.6016 13.1937 29.233 12.6537 28.9987C11.0068 28.2884 9.3255 27.6663 7.66333 26.9982C6.16201 26.3915 4.72963 25.6619 3.48875 24.5906C0.214197 21.7567 0.880597 16.834 3.25513 14.3573C4.97858 12.5602 7.11182 11.6041 9.52082 11.2508C13.1899 10.7133 16.6214 11.3545 19.6739 13.5586C21.3169 14.7451 22.4773 16.3156 23.1859 18.3354H23.1935Z" fill="white"/>
<path id="Vector_4" d="M83.0586 35.7991C84.648 34.6241 86.268 33.499 87.8038 32.2664C88.5851 31.6405 89.24 31.5445 90.2052 31.8632C92.8746 32.7502 95.2338 32.0245 97.0951 29.9625C98.9526 27.9081 99.3433 25.466 98.2786 22.924C97.1909 20.3282 95.1189 18.919 92.3154 18.823C91.3426 18.7884 90.3545 19.2031 89.3741 19.399C89.1711 19.4374 88.8915 19.5103 88.7613 19.4143C86.854 18.0396 84.962 16.6381 83.0663 15.2404C85.9234 12.0571 91.6031 10.0335 97.233 11.7499C103.001 13.5086 107.149 19.0495 107.329 25.0321C107.524 31.5291 103.399 37.1469 97.5662 39.159C91.9018 41.1173 86.0306 39.0284 83.0624 35.7991H83.0586Z" fill="#5CC8D8"/>
<path id="Vector_5" d="M133.368 14.5723C131.556 16.4001 129.749 18.2317 127.933 20.0633C124.329 17.7325 120.672 19.1801 118.906 21.4533C116.968 23.9531 117.064 27.4743 119.186 29.9049C121.013 31.9976 124.498 33.1688 128.067 30.861C129.856 32.6773 131.675 34.5204 133.494 36.3674C129.128 40.5798 120.243 41.8584 114.061 35.8836C108.209 30.2274 108.286 20.5586 114.222 14.9908C120.365 9.231 129.075 10.4367 133.368 14.5723Z" fill="white"/>
<path id="Vector_6" d="M48.2191 13.8619C46.7943 16.0852 45.4117 18.2317 43.9985 20.4358C42.3019 19.1763 40.4674 18.6119 38.4107 19.0688C36.8902 19.4067 35.6417 20.2016 34.6536 21.4073C32.7769 23.6997 32.708 27.1133 34.5004 29.4902C35.6226 30.9801 37.1085 31.8633 38.9546 32.1205C40.8082 32.3778 42.4474 31.8172 43.9487 30.7075C45.113 32.9154 46.2467 35.0581 47.3765 37.2045C47.5335 37.5041 47.5258 37.7344 47.1812 37.9264C42.9836 40.2496 38.6099 40.7487 34.1863 38.8019C29.1845 36.6017 26.2393 32.6965 25.5729 27.2093C24.7687 20.624 28.5181 14.3688 34.6498 12.0994C39.1307 10.4406 43.4585 10.9091 47.5527 13.4011C47.7595 13.5279 47.9548 13.6815 48.2229 13.8696L48.2191 13.8619Z" fill="white"/>
</g>
<defs>
<clipPath id="clip0_906_382">
<rect width="163" height="40" fill="white"/>
</clipPath>
</defs>
</svg>
