<svg width="118" height="28" viewBox="0 0 118 28" fill="none" xmlns="http://www.w3.org/2000/svg">
<g id="Google play" clip-path="url(#clip0_909_381)">
<path id="Vector" d="M11.4289 12.9502L0.628906 24.3502C0.928906 25.5502 2.12891 26.5502 3.42891 26.5502C3.92891 26.5502 4.42891 26.4502 4.92891 26.1502L17.0289 19.1502L11.4289 12.9502Z" fill="white"/>
<path id="Vector_2" d="M22.2289 11.0502L17.0289 8.05029L11.1289 13.2502L17.0289 19.1502L22.2289 16.1502C23.1289 15.6502 23.7289 14.6502 23.7289 13.5502C23.8289 12.4502 23.1289 11.5502 22.2289 11.0502Z" fill="white"/>
<path id="Vector_3" d="M0.627344 2.75C0.527344 2.95 0.527344 3.15 0.527344 3.45V23.65C0.527344 23.95 0.527344 24.15 0.627344 24.35L11.7273 13.25L0.627344 2.75Z" fill="white"/>
<path id="Vector_4" d="M11.4289 13.5502L17.0289 7.95029L4.92891 0.950293C4.52891 0.750293 4.02891 0.550293 3.42891 0.550293C2.12891 0.550293 0.928906 1.45029 0.628906 2.75029L11.4289 13.5502Z" fill="white"/>
<path id="Vector_5" d="M98.5277 23.65H100.428V11.05H98.5277V23.65ZM115.528 15.55L113.328 21.05H113.228L111.028 15.55H109.028L112.428 23.25L110.528 27.55H112.528L117.728 15.65L115.528 15.55ZM104.828 22.25C104.228 22.25 103.328 21.95 103.328 21.15C103.328 20.15 104.428 19.85 105.328 19.85C106.128 19.85 106.528 20.05 107.028 20.25C106.928 21.35 105.928 22.25 104.828 22.25ZM105.028 15.25C103.628 15.25 102.228 15.85 101.628 17.15L103.328 17.85C103.728 17.15 104.328 16.95 105.028 16.95C106.028 16.95 107.028 17.55 107.028 18.55V18.65C106.728 18.45 105.928 18.15 105.028 18.15C103.228 18.15 101.428 19.15 101.428 20.95C101.428 22.65 102.928 23.75 104.528 23.75C105.828 23.75 106.528 23.15 106.928 22.55H107.028V23.55H108.828V18.75C108.828 16.55 107.228 15.25 105.028 15.25ZM93.3277 17.05H90.6277V12.75H93.3277C94.7277 12.75 95.5277 13.95 95.5277 14.95C95.6277 15.95 94.8277 17.05 93.3277 17.05ZM93.3277 11.05H88.8277V23.65H90.7277V18.85H93.3277C95.4277 18.85 97.4277 17.35 97.4277 14.95C97.4277 12.55 95.4277 11.05 93.3277 11.05ZM68.7277 22.25C67.4277 22.25 66.3277 21.15 66.3277 19.65C66.3277 18.15 67.4277 17.05 68.7277 17.05C70.0277 17.05 71.0277 18.15 71.0277 19.65C71.0277 21.15 69.9277 22.25 68.7277 22.25ZM70.8277 16.25C70.3277 15.75 69.5277 15.25 68.5277 15.25C66.4277 15.25 64.4277 17.15 64.4277 19.55C64.4277 21.95 66.4277 23.85 68.5277 23.85C69.5277 23.85 70.3277 23.35 70.8277 22.85H70.9277V23.45C70.9277 25.05 70.0277 25.95 68.6277 25.95C67.4277 25.95 66.7277 25.15 66.4277 24.45L64.7277 25.25C65.2277 26.35 66.4277 27.75 68.5277 27.75C70.7277 27.75 72.6277 26.45 72.6277 23.25V15.55H70.8277V16.25ZM73.9277 23.65H75.8277V11.05H73.9277V23.65ZM78.6277 19.45C78.6277 17.75 79.9277 16.95 80.8277 16.95C81.6277 16.95 82.2277 17.35 82.4277 17.85L78.6277 19.45ZM84.5277 18.05C84.1277 17.05 83.1277 15.35 80.8277 15.35C78.6277 15.35 76.7277 17.05 76.7277 19.65C76.7277 22.05 78.5277 23.95 81.0277 23.95C83.0277 23.95 84.1277 22.75 84.6277 22.05L83.1277 21.05C82.6277 21.75 81.9277 22.25 81.0277 22.25C80.0277 22.25 79.4277 21.85 78.9277 20.95L84.6277 18.55L84.5277 18.05ZM38.7277 16.65V18.45H43.1277C43.0277 19.45 42.6277 20.25 42.1277 20.75C41.5277 21.35 40.5277 22.05 38.7277 22.05C36.0277 22.05 33.9277 19.85 33.9277 17.15C33.9277 14.45 36.0277 12.25 38.7277 12.25C40.1277 12.25 41.2277 12.85 42.0277 13.55L43.3277 12.25C42.2277 11.25 40.8277 10.45 38.7277 10.45C35.0277 10.45 31.9277 13.45 31.9277 17.15C31.9277 20.85 35.0277 23.85 38.7277 23.85C40.7277 23.85 42.2277 23.15 43.4277 21.95C44.6277 20.75 45.0277 19.05 45.0277 17.65C45.0277 17.25 45.0277 16.85 44.9277 16.55H38.7277V16.65ZM49.9277 22.25C48.6277 22.25 47.5277 21.15 47.5277 19.65C47.5277 18.15 48.6277 17.05 49.9277 17.05C51.2277 17.05 52.3277 18.15 52.3277 19.65C52.3277 21.15 51.2277 22.25 49.9277 22.25ZM49.9277 15.35C47.5277 15.35 45.6277 17.15 45.6277 19.65C45.6277 22.15 47.5277 23.95 49.9277 23.95C52.3277 23.95 54.2277 22.15 54.2277 19.65C54.2277 17.15 52.2277 15.35 49.9277 15.35ZM59.3277 22.25C58.0277 22.25 56.9277 21.15 56.9277 19.65C56.9277 18.15 58.0277 17.05 59.3277 17.05C60.6277 17.05 61.7277 18.15 61.7277 19.65C61.7277 21.15 60.6277 22.25 59.3277 22.25ZM59.3277 15.35C56.9277 15.35 55.0277 17.15 55.0277 19.65C55.0277 22.15 56.9277 23.95 59.3277 23.95C61.7277 23.95 63.6277 22.15 63.6277 19.65C63.6277 17.15 61.7277 15.35 59.3277 15.35ZM38.3277 3.25H35.4277V3.95H37.6277C37.5277 4.55 37.3277 5.05 36.9277 5.35C36.5277 5.65 36.0277 5.85 35.4277 5.85C34.7277 5.85 34.2277 5.65 33.7277 5.15C33.3277 4.65 33.0277 4.15 33.0277 3.45C33.0277 2.75 33.2277 2.15 33.7277 1.75C34.2277 1.25 34.7277 1.05 35.4277 1.05C35.7277 1.05 36.1277 1.15 36.4277 1.25C36.7277 1.35 36.9277 1.55 37.1277 1.75L37.7277 1.15C37.4277 0.85 37.1277 0.65 36.7277 0.45C36.2277 0.35 35.8277 0.25 35.4277 0.25C34.5277 0.25 33.8277 0.55 33.2277 1.15C32.6277 1.75 32.3277 2.55 32.3277 3.45C32.3277 4.35 32.6277 5.05 33.2277 5.75C33.7277 6.25 34.5277 6.65 35.4277 6.65C36.3277 6.65 37.1277 6.35 37.6277 5.75C38.1277 5.25 38.4277 4.55 38.4277 3.75C38.4277 3.55 38.3277 3.35 38.3277 3.25ZM39.5277 0.35V6.45H43.1277V5.75H40.3277V3.75H42.8277V3.05H40.3277V1.15H43.1277V0.35H39.5277ZM48.0277 1.15V0.35H43.8277V1.05H45.5277V6.35H46.3277V1.15H48.0277ZM51.8277 0.35H51.0277V6.45H51.8277V0.35ZM56.9277 1.15V0.35H52.7277V1.05H54.5277V6.35H55.3277V1.15H56.9277ZM64.8277 1.15C64.2277 0.55 63.5277 0.25 62.6277 0.25C61.7277 0.25 61.0277 0.55 60.4277 1.15C59.8277 1.75 59.5277 2.55 59.5277 3.45C59.5277 4.35 59.8277 5.15 60.4277 5.75C61.0277 6.35 61.7277 6.65 62.6277 6.65C63.5277 6.65 64.2277 6.35 64.8277 5.75C65.4277 5.15 65.7277 4.35 65.7277 3.45C65.7277 2.55 65.4277 1.75 64.8277 1.15ZM60.9277 1.65C61.3277 1.15 61.9277 0.95 62.6277 0.95C63.3277 0.95 63.8277 1.15 64.3277 1.65C64.7277 2.05 65.0277 2.65 65.0277 3.35C65.0277 4.05 64.8277 4.65 64.3277 5.05C63.9277 5.55 63.3277 5.75 62.6277 5.75C61.9277 5.75 61.4277 5.55 60.9277 5.05C60.5277 4.55 60.2277 4.05 60.2277 3.35C60.3277 2.75 60.5277 2.15 60.9277 1.65ZM67.6277 2.65V1.45L70.7277 6.45H71.5277V0.35H70.7277V5.15L67.7277 0.45H66.7277V6.55H67.5277L67.6277 2.65Z" fill="white"/>
</g>
<defs>
<clipPath id="clip0_909_381">
<rect width="118" height="28" fill="white"/>
</clipPath>
</defs>
</svg>
