<svg width="59" height="61" viewBox="0 0 59 61" fill="none" xmlns="http://www.w3.org/2000/svg">
<g id="Group">
<path id="Vector" d="M37.3593 6.13367C37.3593 6.13367 50.5379 6.37711 56.8 18.7584C56.8 18.7584 64.3022 3.91806 51.4516 0.721185C38.5987 -2.47588 27.5371 5.99256 27.5371 5.99256C27.5346 5.99256 37.4883 8.35246 39.5755 14.4855C41.6621 20.6164 49.2958 20.9441 53.9935 20.4872C53.9935 20.4872 55.951 22.9018 55.5585 25.5101C55.166 28.1185 54.5698 29.7978 56.7285 30.0511C58.8872 30.3045 59.6048 10.4383 37.3593 6.13367Z" fill="white"/>
<path id="Vector_2" d="M18.9915 11.7425C21.3713 10.5998 23.0928 10.1477 22.0892 8.22244C21.0856 6.29478 4.25554 16.8725 13.2058 37.6894C13.2058 37.6894 5.99674 26.6545 12.7114 14.5151C12.7114 14.5151 -3.77851 16.6564 0.804709 29.0819C5.38793 41.5075 18.6136 45.8949 18.6136 45.8949C18.6136 45.8949 14.9668 36.3361 18.8645 31.1589C22.7621 25.9844 18.7403 19.4881 15.7196 15.8614C15.7171 15.8638 16.6117 12.8877 18.9915 11.7425Z" fill="white"/>
<path id="Vector_3" d="M43.2013 40.4718C36.7948 39.513 33.004 46.1481 31.2551 50.5299C31.2551 50.5299 28.2146 51.1608 26.0732 49.6157C23.9319 48.0706 22.7172 46.7713 21.5 48.5724C20.2852 50.3734 37.607 60.1236 51.6378 42.3273C51.6378 42.3273 45.3752 53.9255 31.5039 53.8136C31.5039 53.8136 41.2491 67.2879 49.9856 57.3361C58.7222 47.3799 56.2705 33.6646 56.2705 33.6646C56.2705 33.6646 49.6077 41.43 43.2013 40.471V40.4718Z" fill="white"/>
</g>
</svg>
