<svg width="34" height="50" viewBox="0 0 34 50" fill="none" xmlns="http://www.w3.org/2000/svg">
<g id="Group">
<path id="Vector" d="M32.7071 10.9912C29.1605 1.41308 17.6772 -2.91416 8.79186 2.11838C1.41499 6.29501 -1.79279 14.3797 0.998328 23.2199C1.74631 25.5868 2.80804 27.8709 3.89737 30.1098C6.46259 35.3859 9.64526 40.2854 13.2622 44.9012C14.4042 46.3596 15.6115 47.7677 16.8339 49.2536C17.0397 49.0653 17.1276 49.0026 17.1953 48.9248C23.5406 41.6282 28.8191 33.654 32.308 24.6029C34.0198 20.1627 34.4189 15.6121 32.7071 10.9912Z" fill="#FDB031"/>
<path id="Vector_2" d="M16.9043 30.2279C24.1141 30.2279 29.9588 24.3832 29.9588 17.1734C29.9588 9.96365 24.1141 4.11896 16.9043 4.11896C9.69454 4.11896 3.84985 9.96365 3.84985 17.1734C3.84985 24.3832 9.69454 30.2279 16.9043 30.2279Z" fill="white"/>
<path id="Vector_3" d="M9.20173 11.9202L15.2307 9.30726C18.7497 7.78118 21.7743 8.92323 23.0895 11.9603L23.1071 12.003C24.5955 15.4392 22.698 18.3382 19.3898 19.7739L16.9225 20.8432L18.8401 25.2683L15.5947 26.6764L9.19922 11.9227L9.20173 11.9202ZM18.2427 16.8398C19.8667 16.137 20.3938 14.7565 19.8466 13.4914L19.829 13.4487C19.199 11.9955 17.8487 11.6541 16.2272 12.3569L13.7197 13.4437L15.675 17.9542L18.2478 16.8398H18.2427Z" fill="#231E20"/>
<path id="Vector_4" d="M28.4506 10.7177C31.4102 10.7177 33.8095 8.31844 33.8095 5.35884C33.8095 2.39923 31.4102 0 28.4506 0C25.491 0 23.0918 2.39923 23.0918 5.35884C23.0918 8.31844 25.491 10.7177 28.4506 10.7177Z" fill="#A8CE38"/>
<g id="Group_2">
<path id="Vector_5" d="M14.215 34.3218C13.9841 34.1662 13.7356 34.0457 13.4997 33.9804V34.8589C14.3782 35.0949 14.7521 35.4488 14.7521 36.0939V36.1064C14.7521 36.754 14.2501 37.1681 13.5273 37.2434V37.8157H12.9274V37.2334C12.4254 37.1706 11.951 36.9799 11.5645 36.6862L12.0137 36.0286C12.3325 36.2645 12.6086 36.4277 12.955 36.4955V35.5768C12.1242 35.3459 11.7151 35.0447 11.7151 34.3519V34.3394C11.7151 33.7043 12.1995 33.2827 12.9274 33.2074V32.8735H13.5273V33.2249C13.9439 33.2776 14.2778 33.4207 14.6015 33.6466L14.215 34.3218ZM12.5584 34.2992C12.5584 34.4849 12.6387 34.6004 12.9575 34.7159V33.9302C12.6739 33.9704 12.5584 34.1034 12.5584 34.2892V34.3017V34.2992ZM13.9088 36.139C13.9088 35.9483 13.8159 35.8278 13.4997 35.7123V36.5206C13.7707 36.4804 13.9088 36.3524 13.9088 36.1516V36.139Z" fill="white"/>
<path id="Vector_6" d="M17.9416 34.3218C17.7106 34.1662 17.4622 34.0457 17.2262 33.9804V34.8589C18.1047 35.0949 18.4787 35.4488 18.4787 36.0939V36.1064C18.4787 36.754 17.9767 37.1681 17.2538 37.2434V37.8157H16.6539V37.2334C16.1519 37.1706 15.6776 36.9799 15.291 36.6862L15.7403 36.0286C16.0591 36.2645 16.3352 36.4277 16.6816 36.4955V35.5768C15.8507 35.3459 15.4416 35.0447 15.4416 34.3519V34.3394C15.4416 33.7043 15.926 33.2827 16.6539 33.2074V32.8735H17.2538V33.2249C17.6705 33.2776 18.0043 33.4207 18.3281 33.6466L17.9416 34.3218ZM16.285 34.2992C16.285 34.485 16.3653 34.6004 16.6841 34.7159V33.9302C16.4004 33.9704 16.285 34.1034 16.285 34.2892V34.3017V34.2992ZM17.6353 36.139C17.6353 35.9483 17.5425 35.8278 17.2262 35.7123V36.5206C17.4973 36.4804 17.6353 36.3524 17.6353 36.1516V36.139Z" fill="white"/>
<path id="Vector_7" d="M21.672 34.3218C21.4411 34.1662 21.1926 34.0457 20.9567 33.9804V34.8589C21.8352 35.0949 22.2092 35.4488 22.2092 36.0939V36.1064C22.2092 36.754 21.7072 37.1681 20.9843 37.2434V37.8157H20.3844V37.2334C19.8824 37.1706 19.408 36.9799 19.0215 36.6862L19.4708 36.0286C19.7895 36.2645 20.0656 36.4277 20.412 36.4955V35.5768C19.5812 35.3459 19.1721 35.0447 19.1721 34.3519V34.3394C19.1721 33.7043 19.6565 33.2827 20.3844 33.2074V32.8735H20.9843V33.2249C21.401 33.2776 21.7348 33.4207 22.0586 33.6466L21.672 34.3218ZM20.0154 34.2992C20.0154 34.4849 20.0958 34.6004 20.4145 34.7159V33.9302C20.1309 33.9704 20.0154 34.1034 20.0154 34.2892V34.3017V34.2992ZM21.3658 36.139C21.3658 35.9483 21.273 35.8278 20.9567 35.7123V36.5206C21.2278 36.4804 21.3658 36.3524 21.3658 36.1516V36.139Z" fill="white"/>
</g>
</g>
</svg>
