<svg width="34" height="50" viewBox="0 0 34 50" fill="none" xmlns="http://www.w3.org/2000/svg">
<g id="Group">
<path id="Vector" d="M32.7071 10.9912C29.1605 1.41308 17.6772 -2.91416 8.79186 2.11838C1.41499 6.29501 -1.79279 14.3797 0.998328 23.2199C1.74631 25.5868 2.80804 27.8709 3.89737 30.1098C6.46259 35.3859 9.64526 40.2854 13.2622 44.9012C14.4042 46.3596 15.6115 47.7677 16.8339 49.2536C17.0397 49.0653 17.1276 49.0026 17.1953 48.9248C23.5406 41.6282 28.8191 33.654 32.308 24.6029C34.0198 20.1627 34.4189 15.6121 32.7071 10.9912Z" fill="#FFD200"/>
<path id="Vector_2" d="M16.9041 30.2281C24.1139 30.2281 29.9586 24.3834 29.9586 17.1736C29.9586 9.96383 24.1139 4.11914 16.9041 4.11914C9.6943 4.11914 3.84961 9.96383 3.84961 17.1736C3.84961 24.3834 9.6943 30.2281 16.9041 30.2281Z" fill="white"/>
<path id="Vector_3" d="M9.20173 11.9202L15.2307 9.30726C18.7497 7.78118 21.7743 8.92322 23.0895 11.9603L23.1071 12.003C24.5955 15.4392 22.698 18.3382 19.3898 19.7739L16.9225 20.8432L18.8401 25.2683L15.5947 26.6764L9.19922 11.9227L9.20173 11.9202ZM18.2427 16.8397C19.8667 16.1369 20.3938 14.7565 19.8466 13.4914L19.829 13.4488C19.199 11.9955 17.8487 11.6541 16.2272 12.3569L13.7197 13.4437L15.675 17.9542L18.2478 16.8397H18.2427Z" fill="#231E20"/>
<path id="Vector_4" d="M28.4506 10.7177C31.4102 10.7177 33.8095 8.31845 33.8095 5.35884C33.8095 2.39924 31.4102 0 28.4506 0C25.491 0 23.0918 2.39924 23.0918 5.35884C23.0918 8.31845 25.491 10.7177 28.4506 10.7177Z" fill="#A8CE38"/>
</g>
</svg>
