<svg width="71" height="62" viewBox="0 0 71 62" fill="none" xmlns="http://www.w3.org/2000/svg">
<g id="Group 118">
<path id="Vector" d="M29.627 50.5109V54.5938C29.627 58.3239 32.6497 61.3486 36.3774 61.3486H64.2494C67.9772 61.3486 70.9999 58.3239 70.9999 54.5938V6.7548C70.9999 3.02465 67.9772 0 64.2494 0H36.3849C32.6572 0 29.6345 3.02465 29.6345 6.7548V16.7969H33.4522V11.0178C33.4522 10.3499 33.7147 9.70439 34.1873 9.22405C34.6598 8.74371 35.3049 8.48102 35.9799 8.48102H64.6469C65.3145 8.48102 65.9595 8.75121 66.4395 9.22405C66.9121 9.69689 67.1821 10.3423 67.1746 11.0178V55.2993C67.1746 56.6953 66.042 57.8286 64.6469 57.8286H35.9799C35.3124 57.8286 34.6673 57.5584 34.1948 57.0855C33.7222 56.6127 33.4522 55.9673 33.4522 55.2993V50.5109H29.627ZM43.3679 3.98533C43.5704 4.18047 43.6754 4.45066 43.6829 4.72836C43.6829 5.01356 43.5704 5.27625 43.3679 5.47889C43.1654 5.67403 42.8954 5.78661 42.6179 5.78661C42.3403 5.78661 42.0703 5.67403 41.8678 5.47889C41.6653 5.27625 41.5528 5.00606 41.5528 4.72836C41.5528 4.44316 41.6728 4.18047 41.8678 3.97783C42.2953 3.59505 42.9404 3.59505 43.3679 3.97783V3.98533ZM59.089 4.72836C59.089 5.32128 58.609 5.80162 58.0164 5.80162H46.9382C46.3456 5.80162 45.8656 5.32128 45.8656 4.72836C45.8656 4.13544 46.3456 3.6551 46.9382 3.6551H58.0164C58.609 3.6551 59.089 4.13544 59.089 4.72836Z" fill="white"/>
<path id="Vector_2" d="M25.6443 14.988C24.8868 14.988 24.2717 15.611 24.2717 16.369C24.2717 17.1271 24.8868 17.7425 25.6443 17.7425H26.9869V19.5888C20.3264 21.3976 15.4061 27.4994 15.4061 34.7196C15.4061 43.3657 22.4491 50.3982 31.0972 50.3982C39.7453 50.3982 46.7808 43.3582 46.7808 34.7196C46.7808 27.4994 41.8679 21.3976 35.215 19.5888V17.7425H36.5576C37.3151 17.7425 37.9227 17.1271 37.9302 16.369C37.9302 15.611 37.3226 14.988 36.5576 14.988H25.6518H25.6443ZM29.7246 17.7425H32.4548V19.101C32.0048 19.0634 31.5547 19.0409 31.0897 19.0409C30.6247 19.0409 30.1746 19.0634 29.7171 19.101V17.7425H29.7246ZM6.63047 20.7221C5.87291 20.7221 5.25787 21.3375 5.25787 22.0956C5.25787 22.8536 5.86541 23.4766 6.63047 23.4766H16.5612C17.3187 23.4766 17.9338 22.8536 17.9338 22.0956C17.9338 21.3375 17.3187 20.7296 16.5612 20.7221H6.63047ZM31.0972 21.8029C38.2527 21.8029 44.0281 27.5745 44.0281 34.7271C44.0281 41.8796 38.2602 47.6512 31.0972 47.6512C23.9342 47.6512 18.1588 41.8796 18.1588 34.7271C18.1588 27.5745 23.9342 21.8029 31.0972 21.8029ZM30.9547 24.9101C30.1971 24.9101 29.5746 25.518 29.5746 26.2836V35.9654C29.5746 36.7235 30.1896 37.3389 30.9547 37.3389H36.5651C37.3226 37.3389 37.9452 36.731 37.9452 35.9654C37.9452 35.2074 37.3376 34.5845 36.5726 34.5845C36.5726 34.5845 36.5726 34.5845 36.5651 34.5845H32.3273V26.2836C32.3273 25.5255 31.7122 24.9176 30.9547 24.9101ZM2.8577 27.0341C2.10015 27.0341 1.4851 27.6495 1.4851 28.4151C1.4851 29.1731 2.10015 29.781 2.8577 29.7885H12.7809C13.5385 29.7885 14.161 29.1806 14.161 28.4151C14.161 27.657 13.5535 27.0341 12.7884 27.0341C12.7884 27.0341 12.7884 27.0341 12.7809 27.0341H2.8577ZM1.3801 33.3386C0.622544 33.3386 0 33.9465 0 34.7045C0 34.7045 0 34.712 0 34.7196C0 35.4776 0.622544 36.093 1.3801 36.093H11.3033C12.0608 36.093 12.6834 35.4851 12.6834 34.7196C12.6834 33.9615 12.0759 33.3386 11.3108 33.3386C11.3108 33.3386 11.3108 33.3386 11.3033 33.3386H1.3801ZM2.8577 39.6656C2.10015 39.6656 1.4851 40.281 1.4851 41.039C1.4851 41.7971 2.09265 42.42 2.8577 42.42H12.7809C13.5385 42.42 14.161 41.8121 14.161 41.0465C14.161 41.0465 14.161 41.0465 14.161 41.039C14.161 40.281 13.5385 39.6656 12.7809 39.6656H2.8577ZM6.63047 45.97C5.87291 45.97 5.25787 46.5855 5.25787 47.351C5.25787 48.1091 5.87291 48.717 6.63047 48.7245H16.5612C17.3187 48.7245 17.9263 48.1091 17.9338 47.351C17.9338 46.593 17.3262 45.97 16.5612 45.97H6.63047Z" fill="white"/>
</g>
</svg>
