<svg width="56" height="57" viewBox="0 0 56 57" fill="none" xmlns="http://www.w3.org/2000/svg">
<g id="Group 119">
<path id="Vector" d="M24.3982 56.2281C37.8093 56.2281 48.6812 45.3562 48.6812 31.9451C48.6812 18.534 37.8093 7.66211 24.3982 7.66211C10.9871 7.66211 0.115234 18.534 0.115234 31.9451C0.115234 45.3562 10.9871 56.2281 24.3982 56.2281Z" fill="white"/>
<path id="Vector_2" d="M10.0708 22.1731L21.2855 17.3127C27.8314 14.474 33.4574 16.5984 35.9039 22.2478L35.9366 22.3271C38.7052 28.7189 35.1755 34.1115 29.0219 36.7821L24.4324 38.771L27.9994 47.0023L21.9625 49.6216L10.0662 22.1777L10.0708 22.1731ZM26.8882 31.3241C29.909 30.0168 30.8895 27.4489 29.8717 25.0958L29.839 25.0164C28.6671 22.3131 26.1552 21.6782 23.1391 22.9855L18.4749 25.0071L22.1119 33.3971L26.8976 31.3241H26.8882Z" fill="#231E20"/>
<path id="Vector_3" d="M45.8763 19.9362C51.3816 19.9362 55.8444 15.4734 55.8444 9.96812C55.8444 4.46288 51.3816 0 45.8763 0C40.3711 0 35.9082 4.46288 35.9082 9.96812C35.9082 15.4734 40.3711 19.9362 45.8763 19.9362Z" fill="#A8CE38"/>
</g>
</svg>
