<svg width="55" height="61" viewBox="0 0 55 61" fill="none" xmlns="http://www.w3.org/2000/svg">
<g id="Group 116">
<path id="Vector" d="M53.8533 23.5122C50.9099 22.4934 48.0943 21.132 45.4645 19.463C43.5661 18.2554 41.7752 16.8912 40.1061 15.3817C39.5604 14.8767 38.7186 14.8767 38.1729 15.3817C36.5038 16.8911 34.7129 18.2554 32.8145 19.463C30.1846 21.1349 27.3661 22.4934 24.4197 23.5122C23.845 23.727 23.4589 24.2727 23.4531 24.8881V34.5484C23.456 37.7559 24.6026 40.8589 26.6926 43.2946C29.8798 46.9898 34.0597 49.6951 38.7389 51.0882C39.0001 51.1636 39.2788 51.1636 39.54 51.0882C44.2221 49.6948 48.4051 46.9895 51.5952 43.2946C53.6881 40.8476 54.8347 37.7301 54.826 34.5112V24.851C54.8027 24.2501 54.4193 23.7213 53.8533 23.5122ZM39.1392 24.1973C40.997 24.1973 42.6718 25.3148 43.383 27.0332C44.0941 28.7487 43.6994 30.7255 42.3844 32.0375C41.0695 33.3524 39.0927 33.7414 37.3772 33.0302C35.6617 32.3161 34.5442 30.6383 34.5471 28.7806C34.55 26.2465 36.6051 24.1973 39.1392 24.1973ZM46.756 38.6356C44.457 40.0144 41.8272 40.7429 39.1482 40.7429C36.466 40.7429 33.8362 40.0143 31.5374 38.6356C31.4561 38.5862 31.4184 38.4875 31.4416 38.3976C32.0396 36.2292 34.0134 34.7285 36.263 34.7343H42.0307C44.2803 34.7314 46.2541 36.235 46.8521 38.4034C46.8695 38.4933 46.8314 38.5862 46.756 38.6356Z" fill="white"/>
<path id="Vector_2" d="M37.2009 50.0109V54.751C37.2009 55.4158 36.9368 56.0544 36.4666 56.5217C35.9963 56.9919 35.3606 57.2561 34.6959 57.2561H6.29561C4.911 57.2561 3.79056 56.1356 3.79056 54.751V10.9085C3.78766 10.2438 4.0518 9.60516 4.52204 9.13493C4.99228 8.66179 5.63088 8.39764 6.29558 8.39764H34.6959C35.3606 8.39764 35.9992 8.66179 36.4694 9.13493C36.9397 9.60517 37.2038 10.2438 37.2009 10.9085V16.6297H40.9831V6.68785C40.9831 2.99556 37.9876 0 34.2953 0H6.68785C2.99556 0 0 2.99556 0 6.68785V54.0541C0 57.7464 2.99556 60.742 6.68785 60.742H34.3012C37.9964 60.742 40.9891 57.7464 40.9891 54.0541V50.0107L37.2009 50.0109ZM27.378 3.93908C27.7989 3.55883 28.4404 3.55883 28.8642 3.93908C29.0587 4.13646 29.1719 4.40352 29.1748 4.68218C29.1748 4.96084 29.0616 5.22788 28.8642 5.42527C28.6639 5.61975 28.3968 5.73006 28.1211 5.73006C27.8424 5.72716 27.5754 5.61686 27.378 5.42527C27.1777 5.22788 27.0645 4.96084 27.0645 4.68218C27.0703 4.40642 27.1806 4.14227 27.378 3.94779V3.93908ZM12.8646 3.61978H23.8401C24.4265 3.61978 24.9025 4.09582 24.9025 4.68218C24.9025 5.26853 24.4265 5.74459 23.8401 5.74459H12.8646C12.2783 5.74459 11.8022 5.26854 11.8022 4.68218C11.8022 4.09584 12.2783 3.61978 12.8646 3.61978Z" fill="white"/>
</g>
</svg>
