<svg width="54" height="58" viewBox="0 0 54 58" fill="none" xmlns="http://www.w3.org/2000/svg">
<path d="M53.7332 13.729C53.3772 12.4853 52.2538 11.7178 50.9523 11.7178C49.6508 11.7178 50.3605 11.7178 50.0646 11.8357L46.1 13.0794V3.66867C46.1 1.36161 44.6806 0 42.4891 0H24.0256C21.7763 0 20.239 1.30148 20.239 3.66867V21.6007C18.2279 22.4884 16.8061 23.0802 16.5102 23.2583C14.0829 24.502 12.2497 27.3407 11.836 28.5243C11.3043 29.6478 0 57.9361 0 57.9361H23.5542C23.5542 57.9361 29.2364 55.5689 32.3134 52.2539C33.6148 50.8345 34.6204 48.999 35.3325 47.4016H42.7903C44.7437 47.4016 46.2232 46.1579 46.2232 43.615V41.4836H48.7684C50.3658 41.4836 51.6673 40.1821 51.6673 38.5848C51.6673 36.9874 50.3658 35.6859 48.7684 35.6859H46.2232V34.7381H48.8262C50.4236 34.7381 51.725 33.4366 51.725 31.8392C51.725 30.2418 50.4236 28.9403 48.8262 28.9403H46.2232V27.9925H48.8262C50.4236 27.9925 51.725 26.691 51.725 25.0937C51.725 23.4963 50.4236 22.1948 48.8262 22.1948H46.2232V19.1757L51.9632 17.4003C52.6729 17.1645 53.3248 16.6906 53.6784 15.9809C54.0344 15.2712 54.0922 14.5014 53.8564 13.7917H53.7386L53.7332 13.729ZM43.4946 44.2066H27.3379C27.22 44.7984 27.1021 45.4503 26.9819 46.0999C25.9162 50.2425 22.3654 52.5493 22.1874 52.67C22.0695 52.7879 21.8915 52.7879 21.7135 52.7879C21.4176 52.7879 21.1818 52.67 21.0038 52.4319C20.768 52.0181 20.8859 51.5442 21.2396 51.3084C21.2396 51.3084 24.3766 49.2371 25.322 45.7465C26.2699 42.0177 25.7959 38.7627 25.7959 38.7053V38.5273H35.2043C37.1577 38.5273 39.051 37.3437 39.051 35.0944C39.051 32.8451 37.3358 31.3656 35.2043 31.3656H19.2258V29.7081H22.7766L22.7812 3.01679H27.1596C27.1596 4.08249 27.8692 4.67429 28.8171 4.67429H37.5159C38.4637 4.67429 39.0555 4.08249 39.0555 3.01679H43.494V44.2645L43.4946 44.2066Z" fill="white"/>
<path d="M39.412 20.0005C39.1762 19.7647 38.8202 19.7046 38.5243 19.7647V14.4385C38.5243 11.4795 36.097 9.1123 33.1981 9.1123C30.2992 9.1123 27.8719 11.5396 27.8719 14.4385V19.7647C27.576 19.7647 27.3402 19.7647 27.1021 20.0005C26.6282 20.4143 26.5704 21.0662 26.9842 21.5401L33.3159 28.228L39.6475 21.4827C39.9434 21.0088 39.8833 20.417 39.4695 20.0633L39.412 20.0005ZM29.4692 15.4441C29.4692 15.0303 29.8252 14.6743 30.239 14.6743H31.9543C32.3681 14.6743 32.7241 15.0303 32.7241 15.4441C32.7241 15.8579 32.3681 16.2139 31.9543 16.2139H30.239C29.8252 16.2139 29.4692 15.8579 29.4692 15.4441ZM33.198 20.8304C32.4282 20.8304 31.8364 20.2386 31.8364 19.4688C31.8364 18.699 32.4282 18.1072 33.198 18.1072C33.9678 18.1072 34.5596 18.699 34.5596 19.4688C34.5596 20.2386 33.9678 20.8304 33.198 20.8304ZM36.0969 16.2139H34.3816C33.9678 16.2139 33.6118 15.8579 33.6118 15.4441C33.6118 15.0303 33.9678 14.6743 34.3816 14.6743H36.0969C36.5107 14.6743 36.8667 15.0303 36.8667 15.4441C36.8667 15.8579 36.5107 16.2139 36.0969 16.2139Z" fill="white"/>
</svg>
