<svg width="34" height="50" viewBox="0 0 34 50" fill="none" xmlns="http://www.w3.org/2000/svg">
<g id="Group">
<path id="Vector" d="M32.7071 10.9912C29.1605 1.41308 17.6747 -2.91667 8.79186 2.11838C1.41499 6.29501 -1.79279 14.3797 0.998329 23.2199C1.74631 25.5868 2.80803 27.8709 3.89737 30.1098C6.46259 35.3859 9.64526 40.2854 13.2622 44.9012C14.4042 46.3596 15.6115 47.7677 16.8339 49.2536C17.0397 49.0653 17.1276 49.0026 17.1953 48.9248C23.5406 41.6282 28.8191 33.654 32.308 24.6029C34.0198 20.1627 34.4189 15.6121 32.7071 10.9912Z" fill="#A8CE38"/>
<path id="Vector_2" d="M16.9043 30.2279C24.1141 30.2279 29.9588 24.3832 29.9588 17.1734C29.9588 9.96365 24.1141 4.11896 16.9043 4.11896C9.69454 4.11896 3.84985 9.96365 3.84985 17.1734C3.84985 24.3832 9.69454 30.2279 16.9043 30.2279Z" fill="white"/>
<path id="Vector_3" d="M9.19782 11.9202L15.2268 9.30726C18.7458 7.78118 21.7704 8.92323 23.0856 11.9603L23.1032 12.003C24.5916 15.4392 22.6941 18.3382 19.3859 19.7739L16.9186 20.8432L18.8362 25.2683L15.5908 26.6764L9.19531 11.9227L9.19782 11.9202ZM18.2413 16.8398C19.8653 16.137 20.3924 14.7565 19.8452 13.4914L19.8277 13.4487C19.1976 11.9955 17.8473 11.6541 16.2258 12.3569L13.7183 13.4437L15.6736 17.9542L18.2464 16.8398H18.2413Z" fill="#231E20"/>
<path id="Vector_4" d="M28.4506 10.7177C31.4102 10.7177 33.8095 8.31844 33.8095 5.35884C33.8095 2.39923 31.4102 0 28.4506 0C25.491 0 23.0918 2.39923 23.0918 5.35884C23.0918 8.31844 25.491 10.7177 28.4506 10.7177Z" fill="#FDB031"/>
<g id="Group_2">
<path id="Vector_5" d="M16.0959 34.3216C15.8649 34.166 15.6165 34.0455 15.3805 33.9803V34.8588C16.259 35.0947 16.633 35.4486 16.633 36.0937V36.1062C16.633 36.7538 16.131 37.168 15.4081 37.2433V37.8155H14.8082V37.2332C14.3062 37.1705 13.8319 36.9797 13.4453 36.686L13.8946 36.0284C14.2134 36.2644 14.4895 36.4275 14.8358 36.4953V35.5766C14.005 35.3457 13.5959 35.0445 13.5959 34.3517V34.3392C13.5959 33.7042 14.0803 33.2825 14.8082 33.2072V32.8734H15.4081V33.2247C15.8248 33.2775 16.1586 33.4205 16.4824 33.6464L16.0959 34.3216ZM14.4393 34.299C14.4393 34.4848 14.5196 34.6002 14.8384 34.7157V33.9301C14.5547 33.9702 14.4393 34.1032 14.4393 34.289V34.3015V34.299ZM15.7896 36.1389C15.7896 35.9481 15.6968 35.8276 15.3805 35.7122V36.5204C15.6516 36.4802 15.7896 36.3522 15.7896 36.1514V36.1389Z" fill="white"/>
<path id="Vector_6" d="M19.8263 34.3216C19.5954 34.166 19.3469 34.0455 19.111 33.9803V34.8588C19.9895 35.0947 20.3635 35.4486 20.3635 36.0937V36.1062C20.3635 36.7538 19.8615 37.168 19.1386 37.2433V37.8155H18.5387V37.2332C18.0367 37.1705 17.5623 36.9797 17.1758 36.686L17.6251 36.0284C17.9438 36.2644 18.2199 36.4275 18.5663 36.4953V35.5766C17.7355 35.3457 17.3264 35.0445 17.3264 34.3517V34.3392C17.3264 33.7042 17.8108 33.2825 18.5387 33.2072V32.8734H19.1386V33.2247C19.5553 33.2775 19.8891 33.4205 20.2129 33.6464L19.8263 34.3216ZM18.1697 34.299C18.1697 34.4848 18.2501 34.6002 18.5688 34.7157V33.9301C18.2852 33.9702 18.1697 34.1032 18.1697 34.289V34.3015V34.299ZM19.5201 36.1389C19.5201 35.9481 19.4272 35.8276 19.111 35.7122V36.5204C19.3821 36.4802 19.5201 36.3522 19.5201 36.1514V36.1389Z" fill="white"/>
</g>
</g>
</svg>
