<svg width="34" height="50" viewBox="0 0 34 50" fill="none" xmlns="http://www.w3.org/2000/svg">
<g id="Group">
<path id="Vector" d="M32.7071 10.9912C29.1605 1.41308 17.6772 -2.91416 8.79186 2.11838C1.41499 6.29501 -1.79279 14.3797 0.998329 23.2199C1.74631 25.5868 2.80803 27.8709 3.89737 30.1098C6.46259 35.3859 9.64526 40.2854 13.2622 44.9012C14.4042 46.3596 15.6115 47.7677 16.8339 49.2536C17.0397 49.0653 17.1276 49.0026 17.1953 48.9248C23.5406 41.6282 28.8191 33.654 32.308 24.6029C34.0198 20.1627 34.4189 15.6121 32.7071 10.9912Z" fill="#7FCDDA"/>
<path id="Vector_2" d="M16.9043 30.2279C24.1141 30.2279 29.9588 24.3832 29.9588 17.1734C29.9588 9.96359 24.1141 4.1189 16.9043 4.1189C9.69454 4.1189 3.84985 9.96359 3.84985 17.1734C3.84985 24.3832 9.69454 30.2279 16.9043 30.2279Z" fill="white"/>
<path id="Vector_3" d="M9.19782 11.9202L15.2268 9.30726C18.7458 7.78118 21.7704 8.92322 23.0856 11.9603L23.1032 12.003C24.5916 15.4392 22.6941 18.3382 19.3859 19.7739L16.9186 20.8432L18.8362 25.2683L15.5908 26.6764L9.19531 11.9227L9.19782 11.9202ZM18.2413 16.8397C19.8653 16.1369 20.3924 14.7565 19.8452 13.4914L19.8277 13.4488C19.1976 11.9955 17.8473 11.6541 16.2258 12.3569L13.7183 13.4437L15.6736 17.9542L18.2464 16.8397H18.2413Z" fill="#231E20"/>
<path id="Vector_4" d="M28.4506 10.7177C31.4102 10.7177 33.8095 8.31845 33.8095 5.35884C33.8095 2.39924 31.4102 0 28.4506 0C25.491 0 23.0918 2.39924 23.0918 5.35884C23.0918 8.31845 25.491 10.7177 28.4506 10.7177Z" fill="#D64127"/>
</g>
</svg>
