<svg width="61" height="29" viewBox="0 0 61 29" fill="none" xmlns="http://www.w3.org/2000/svg">
<g id="Group">
<path id="Vector" d="M15.0483 8.22243C13.7373 7.33891 12.3265 6.6549 10.987 6.28439V11.272C15.9746 12.6115 18.0979 14.6208 18.0979 18.2831V18.3544C18.0979 22.031 15.2478 24.3823 11.1437 24.8098V28.0589H7.73793V24.7528C4.88787 24.3965 2.19455 23.3135 0 21.6462L2.55082 17.9126C4.36061 19.2522 5.92814 20.1784 7.89468 20.5632V15.3476C3.17783 14.0366 0.855027 12.3265 0.855027 8.39343V8.32217C0.855027 4.71685 3.60534 2.3228 7.73793 1.89529V0H11.1437V1.99503C13.5093 2.29429 15.4046 3.10657 17.2429 4.3891L15.0483 8.22243ZM5.64313 8.09416C5.64313 9.14869 6.09913 9.8042 7.90892 10.4597V5.99937C6.29864 6.22737 5.64313 6.98265 5.64313 8.03717V8.10843V8.09416ZM13.3098 18.5396C13.3098 17.4566 12.7825 16.7726 10.987 16.1171V20.7057C12.526 20.4777 13.3098 19.7509 13.3098 18.6109V18.5396Z" fill="white"/>
<path id="Vector_2" d="M36.2055 8.22243C34.8945 7.33891 33.4837 6.6549 32.1442 6.28439V11.272C37.1318 12.6115 39.2551 14.6208 39.2551 18.2831V18.3544C39.2551 22.031 36.4051 24.3823 32.301 24.8098V28.0589H28.8951V24.7528C26.0451 24.3965 23.3518 23.3135 21.1572 21.6462L23.708 17.9126C25.5178 19.2522 27.0854 20.1784 29.0519 20.5632V15.3476C24.3351 14.0366 22.0122 12.3265 22.0122 8.39343V8.32217C22.0122 4.71685 24.7625 2.3228 28.8951 1.89529V0H32.301V1.99503C34.6665 2.29429 36.5618 3.10657 38.4001 4.3891L36.2055 8.22243ZM26.8003 8.09416C26.8003 9.14869 27.2563 9.8042 29.0661 10.4597V5.99937C27.4558 6.22737 26.8003 6.98265 26.8003 8.03717V8.10843V8.09416ZM34.467 18.5396C34.467 17.4566 33.9397 16.7726 32.1442 16.1171V20.7057C33.6832 20.4777 34.467 19.7509 34.467 18.6109V18.5396Z" fill="white"/>
<path id="Vector_3" d="M57.385 8.22243C56.074 7.33891 54.6632 6.6549 53.3237 6.28439V11.272C58.3113 12.6115 60.4346 14.6208 60.4346 18.2831V18.3544C60.4346 22.031 57.5845 24.3823 53.4804 24.8098V28.0589H50.0746V24.7528C47.2246 24.3965 44.5312 23.3135 42.3367 21.6462L44.8875 17.9126C46.6973 19.2522 48.2648 20.1784 50.2314 20.5632V15.3476C45.5145 14.0366 43.1917 12.3265 43.1917 8.39343V8.32217C43.1917 4.71685 45.942 2.3228 50.0746 1.89529V0H53.4804V1.99503C55.846 2.29429 57.7413 3.10657 59.5795 4.3891L57.385 8.22243ZM47.9798 8.09416C47.9798 9.14869 48.4358 9.8042 50.2456 10.4597V5.99937C48.6353 6.22737 47.9798 6.98265 47.9798 8.03717V8.10843V8.09416ZM55.6464 18.5396C55.6464 17.4566 55.1192 16.7726 53.3237 16.1171V20.7057C54.8627 20.4777 55.6464 19.7509 55.6464 18.6109V18.5396Z" fill="white"/>
</g>
</svg>
