<svg width="34" height="34" viewBox="0 0 34 34" fill="none" xmlns="http://www.w3.org/2000/svg">
<g id="Linked in" clip-path="url(#clip0_919_2987)">
<path id="Vector" d="M30.2222 0H3.77778C1.69056 0 0 1.69056 0 3.77778V30.2222C0 32.3094 1.69056 34 3.77778 34H30.2222C32.3094 34 34 32.3094 34 30.2222V3.77778C34 1.69056 32.3094 0 30.2222 0ZM10.2803 29.2778H5.20861V12.9058H10.2803V29.2778ZM7.72083 10.7619C6.06333 10.7619 4.72222 9.41139 4.72222 7.73972C4.72222 6.06806 6.06333 4.7175 7.72083 4.7175C9.37833 4.7175 10.7194 6.06806 10.7194 7.73972C10.7194 9.41139 9.37833 10.7619 7.72083 10.7619ZM29.2778 29.2778H24.2344V20.6833C24.2344 18.3269 23.3372 17.0094 21.4767 17.0094C19.4461 17.0094 18.3883 18.3789 18.3883 20.6833V29.2778H13.5244V12.9058H18.3883V15.1111C18.3883 15.1111 19.8522 12.4053 23.3231 12.4053C26.7939 12.4053 29.2825 14.5256 29.2825 18.9125V29.2778H29.2778Z" fill="white"/>
</g>
<defs>
<clipPath id="clip0_919_2987">
<rect width="34" height="34" fill="white"/>
</clipPath>
</defs>
</svg>
