<svg width="41" height="48" viewBox="0 0 41 48" fill="none" xmlns="http://www.w3.org/2000/svg">
<path id="Vector" d="M0.0722656 41.0682C2.69527 39.1294 5.36883 37.273 7.90335 35.2392C9.19273 34.2065 10.2735 34.0481 11.8663 34.574C16.2717 36.0375 20.1651 34.8401 23.2369 31.4377C26.3023 28.0481 26.947 24.0185 25.1899 19.8242C23.3949 15.5412 19.9755 13.216 15.3489 13.0576C13.7435 13.0006 12.1128 13.6848 10.4948 14.008C10.1598 14.0713 9.69837 14.1917 9.48347 14.0333C6.33587 11.7651 3.21355 9.45253 0.0849093 7.1463C4.79999 1.89393 14.1733 -1.44503 23.4644 1.38707C32.9831 4.28886 39.8281 13.4314 40.1252 23.3026C40.4475 34.0228 33.6404 43.292 24.0143 46.612C14.6663 49.8432 4.97697 46.3966 0.0785923 41.0682H0.0722656Z" fill="#5CC8D8"/>
</svg>
