<svg width="70" height="48" viewBox="0 0 70 48" fill="none" xmlns="http://www.w3.org/2000/svg">
<path id="Vector" d="M69.1388 24.1771C67.072 25.8814 65.1127 27.5667 63.0838 29.157C56.6622 34.2003 49.8424 38.6417 42.5043 42.2151C39.3883 43.7357 36.2091 45.2119 32.9161 46.2573C20.6164 50.1538 9.37227 45.6744 3.55742 35.3914C-3.44568 22.9986 2.57775 6.98171 15.9013 2.03979C22.3293 -0.348809 28.6624 0.20874 34.8375 2.59734C47.4279 7.46323 58.5267 14.8254 68.6774 23.6765C68.7849 23.7716 68.8734 23.892 69.1388 24.1834V24.1771ZM25.4832 35.1253C31.5951 35.062 36.5188 30.1264 36.4809 24.0884C36.4429 17.7779 31.4813 13.0451 25.0281 13.0831C19.7884 13.1148 14.1885 17.7652 14.435 24.7093C14.6372 30.3481 19.6367 35.1823 25.4832 35.1253Z" fill="#FDB031"/>
</svg>
