<svg width="43" height="66" viewBox="0 0 43 66" fill="none" xmlns="http://www.w3.org/2000/svg">
<path id="Vector" d="M42.9991 65.8606H29.587V64.5174C29.587 56.7561 29.5996 48.9947 29.5744 41.2334C29.5744 40.0549 29.4669 38.8574 29.2773 37.6917C28.5378 33.0539 25.9211 31.4002 21.2945 31.9451C16.6111 32.4963 13.8427 35.6325 13.7605 40.4984C13.6404 47.8099 13.7163 55.1278 13.7036 62.4456C13.7036 63.5544 13.7036 64.6631 13.7036 65.8479H0.417969V0H13.6657V22.7709C14.5379 22.3147 15.2458 21.9535 15.9411 21.5734C23.0264 17.6579 31.8814 18.5132 37.5698 23.7402C40.8817 26.7814 42.3418 30.7223 42.7905 35.1003C42.9359 36.5005 42.9801 37.9134 42.9801 39.3263C42.9991 47.7212 42.9864 56.1098 42.9864 64.5048V65.8733L42.9991 65.8606Z" fill="white"/>
</svg>
