<svg width="24" height="25" viewBox="0 0 24 25" fill="none" xmlns="http://www.w3.org/2000/svg">
<path id="Vector" d="M12 0.5C8.81725 0.5 5.7654 1.76412 3.51423 4.01423C1.26415 6.26533 0 9.31725 0 12.5C0 15.6828 1.26412 18.7346 3.51423 20.9858C5.76533 23.2359 8.81725 24.5 12 24.5C15.1828 24.5 18.2346 23.2359 20.4858 20.9858C22.7359 18.7347 24 15.6828 24 12.5C24 9.31725 22.7359 6.2654 20.4858 4.01423C18.2347 1.76415 15.1828 0.5 12 0.5ZM9.88392 17.5943L8.18206 15.8925L5.63949 13.3509L7.34136 11.6491L9.8829 14.1906L16.6689 7.40461L18.3708 9.10648L9.88392 17.5943Z" fill="#888888"/>
</svg>
